# xmcd
#
# Track frame offsets:
#	150
#	11478
#	23458
#	35942
#	47850
#	57943
#	67924
#	79792
#	89666
#	100164
#	110941
#	122044
#	134882
#	144814
#	156328
#	166525
#	179178
#	190147
#	202382
#	214380
#
# Disc length: 3023 seconds
# Revision: 0
# Processed by: cddbd v1.5.2PL0 Copyright (c) Steve Scherf et al.
# Submitted via: dBpowerAMP V12.0
#
DISCID=2f0bcd14
DTITLE=Various Artist - One of These Days: The Anna Records Story
DYEAR=1961
DGENRE=R&B
TTITLE0=David Ruffin - One of These Days
TTITLE1=Barrett Strong - Money (That’s What I Want)
TTITLE2=Paul Gayten - The Hunch
TTITLE3=Joe Tex - All I Could Do Was Cry (Part 1)
TTITLE4=Johnny and Jackey - Let’s Go To A Movie Baby
TTITLE5=Lamont Anthony - Let's Talk It Over
TTITLE6=The Voice Masters - Needed
TTITLE7=The Falcons - Just For Your Love
TTITLE8=Herman Griffin and The Mello-Dees - Do You Want To See My Baby
TTITLE9=The Cap-Tans - I'm Afraid
TTITLE10=The Hill Sisters - Hit And Run Away Love
TTITLE11=Ty Hunter and The Voice Masters - Everything About You
TTITLE12=Ruben Fort - I Feel It
TTITLE13=Bob Kayli - Peppermint (You Know What To Do)
TTITLE14=Joe Tex - Baby You're Right
TTITLE15=Barrett Strong - You Knows What To Do
TTITLE16=The Voice Masters - Hope And Pray
TTITLE17=Lamont Anthony - Popeye (The Sailor Man)
TTITLE18=Johnny and Jackey - No One Else But You
TTITLE19=Ty Hunter and The Voice Masters - I'm Free
EXTD=
EXTT0=
EXTT1=
EXTT2=
EXTT3=
EXTT4=
EXTT5=
EXTT6=
EXTT7=
EXTT8=
EXTT9=
EXTT10=
EXTT11=
EXTT12=
EXTT13=
EXTT14=
EXTT15=
EXTT16=
EXTT17=
EXTT18=
EXTT19=
PLAYORDER=
